<svg version="1.1" id="Layer_2" xmlns="http://www.w3.org/2000/svg" xmlns:xlink="http://www.w3.org/1999/xlink" x="0px" y="0px"
	 width="50px" height="50px" viewBox="0 0 50 50" enable-background="new 0 0 50 50" xml:space="preserve">
<path d="M46.95,15.936C46.476,15.345,45.758,15,45,15h-2.5c0-1.381-1.119-2.5-2.5-2.5h-2.5V10c0-1.381-1.119-2.5-2.5-2.5H5
	c-1.381,0-2.5,1.119-2.5,2.5v30c0,1.381,1.119,2.5,2.5,2.5h5h25h5c1.172,0,2.187-0.814,2.44-1.958l5-22.5
	C47.605,17.302,47.425,16.527,46.95,15.936z M5,10h30v2.5h-2.5c-1.381,0-2.5,1.119-2.5,2.5H15c-1.172,0-2.186,0.814-2.44,1.958
	c0,0-5.058,22.862-5.058,23.042H5V10L5,10z"/>
</svg>